<svg width="139" height="66" viewBox="0 0 139 66" fill="none" xmlns="http://www.w3.org/2000/svg">
<path d="M1.44141 37V12.3906H4.5V33.9766H14.6602V37H1.44141ZM16.6289 31.7969V23.1133C16.6289 22.0117 17.1211 20.9336 18.1055 19.8789C19.3242 18.6133 20.8477 17.9805 22.6758 17.9805V20.8281C21.293 20.8281 20.332 21.4023 19.793 22.5508C19.6289 22.9023 19.5469 23.2539 19.5469 23.6055V31.3398C19.5469 32.207 19.9453 32.9453 20.7422 33.5547C21.3047 33.9766 21.9492 34.1875 22.6758 34.1875V37.0352C20.4492 37.0352 18.7266 36.1328 17.5078 34.3281C16.9219 33.4375 16.6289 32.5938 16.6289 31.7969ZM24.1875 37.0352V34.1875C25.4297 34.1875 26.3203 33.625 26.8594 32.5C27.0469 32.125 27.1406 31.7617 27.1406 31.4102V23.6055C27.1406 22.6445 26.7305 21.8828 25.9102 21.3203C25.3945 20.9922 24.8086 20.8281 24.1523 20.8281V17.9805C26.3086 17.9805 27.9727 18.8594 29.1445 20.6172C29.7305 21.4844 30.0234 22.3164 30.0234 23.1133V31.7969C30.0234 32.9453 29.5312 34.0586 28.5469 35.1367C27.3984 36.3789 25.9453 37.0117 24.1875 37.0352ZM32.168 22.4102V19.5273H34.4883V17.4883C34.4883 16.1758 34.9219 14.9805 35.7891 13.9023C36.75 12.7773 37.9922 12.2031 39.5156 12.1797H40.8164L40.1484 15.0273H39.4805C38.1445 15.0977 37.4648 15.918 37.4414 17.4883V19.5625L39.832 19.5273V22.4102H37.4414V37H34.4883V22.4102H32.168ZM41.8008 21.0391V18.1914H44.1211V12.1094H47.1094V18.1914H49.3594V21.0742H47.1094V31.1641C47.1094 32.8281 47.7891 33.7539 49.1484 33.9414C49.4062 33.9883 49.6641 34.0117 49.9219 34.0117H50.4141L51.082 37H49.8164C46.9336 36.9766 45.1641 35.8984 44.5078 33.7656C44.2734 32.9688 44.1562 31.9844 44.1562 30.8125L44.1211 21.0391H41.8008ZM52.6641 37V12.3906H55.7227V23.1133H58.8867V26.1016H55.7227V37H52.6641ZM60.6445 26.1016V23.1133H63.7734V12.3906H66.8672V37H63.7734V26.1016H60.6445ZM69.6094 31.7969V23.1133C69.6094 22.0117 70.1016 20.9336 71.0859 19.8789C72.3047 18.6133 73.8281 17.9805 75.6562 17.9805V20.8281C74.2734 20.8281 73.3125 21.4023 72.7734 22.5508C72.6094 22.9023 72.5273 23.2539 72.5273 23.6055V31.3398C72.5273 32.207 72.9258 32.9453 73.7227 33.5547C74.2852 33.9766 74.9297 34.1875 75.6562 34.1875V37.0352C73.4297 37.0352 71.707 36.1328 70.4883 34.3281C69.9023 33.4375 69.6094 32.5938 69.6094 31.7969ZM77.168 37.0352V34.1875C78.4102 34.1875 79.3008 33.625 79.8398 32.5C80.0273 32.125 80.1211 31.7617 80.1211 31.4102V23.6055C80.1211 22.6445 79.7109 21.8828 78.8906 21.3203C78.375 20.9922 77.7891 20.8281 77.1328 20.8281V17.9805C79.2891 17.9805 80.9531 18.8594 82.125 20.6172C82.7109 21.4844 83.0039 22.3164 83.0039 23.1133V31.7969C83.0039 32.9453 82.5117 34.0586 81.5273 35.1367C80.3789 36.3789 78.9258 37.0117 77.168 37.0352ZM85.6758 31.9375V18.0156H88.6641V31.5859C88.6641 32.4297 89.0859 33.1328 89.9297 33.6953C90.4922 34.0469 91.1133 34.2227 91.793 34.2227V37.1758C89.543 37.1758 87.8086 36.2969 86.5898 34.5391C85.9805 33.6484 85.6758 32.7812 85.6758 31.9375ZM93.3398 37.1758V34.2227C94.6055 34.2227 95.5312 33.7188 96.1172 32.7109C96.3281 32.3359 96.4336 31.9609 96.4336 31.5859V18.0156H99.4219V31.9375C99.4219 33.0391 98.918 34.1289 97.9102 35.207C96.6914 36.4961 95.168 37.1523 93.3398 37.1758ZM101.461 32.0078L104.238 31.4805C104.238 32.5352 104.789 33.3672 105.891 33.9766C106.43 34.2344 106.945 34.375 107.438 34.3984V37.1758C105.164 37.1758 103.465 36.3555 102.34 34.7148C101.754 33.8477 101.461 32.9453 101.461 32.0078ZM101.637 23.3594C101.637 21.2266 102.609 19.6445 104.555 18.6133C105.492 18.1211 106.43 17.875 107.367 17.875V20.6172C106.289 20.6172 105.457 21.0625 104.871 21.9531C104.566 22.3984 104.414 22.8672 104.414 23.3594C104.414 24.1094 105 24.7188 106.172 25.1875C107.062 25.5625 108.785 26.0547 111.34 26.6641C112.934 26.9922 114.07 27.7773 114.75 29.0195C115.102 29.6758 115.277 30.4141 115.277 31.2344C115.277 33.4844 114.375 35.1484 112.57 36.2266C111.516 36.8594 110.309 37.1758 108.949 37.1758V34.3984C110.027 34.3984 110.93 34.0234 111.656 33.2734C112.172 32.7344 112.43 32.1016 112.43 31.375C112.43 30.4375 111.504 29.6875 109.652 29.125C109.184 28.9844 108.434 28.7852 107.402 28.5273C106.301 28.2695 105.504 28.0586 105.012 27.8945C103.23 27.1914 102.152 26.125 101.777 24.6953C101.684 24.2734 101.637 23.8281 101.637 23.3594ZM108.914 20.6523V17.875C110.93 17.875 112.559 18.625 113.801 20.125C114.574 21.0859 114.961 22.0938 114.961 23.1484L112.184 23.6055C112.184 22.3164 111.48 21.4141 110.074 20.8984C109.652 20.7344 109.266 20.6523 108.914 20.6523ZM117.352 31.7969V23.0781C117.375 22 117.891 20.9336 118.898 19.8789C120.117 18.6367 121.594 18.0039 123.328 17.9805V20.7578C122.203 20.7578 121.324 21.25 120.691 22.2344C120.434 22.6562 120.305 23.043 120.305 23.3945V25.7852H128.18V23.3945C128.18 22.3398 127.641 21.5664 126.562 21.0742C126.07 20.8398 125.566 20.7227 125.051 20.7227V17.9805C126.668 17.9805 128.109 18.5547 129.375 19.7031C130.43 20.7109 130.969 21.8242 130.992 23.043V28.6328H120.305V31.7969C120.305 32.4531 120.68 33.0625 121.43 33.625C122.039 34.0469 122.684 34.2578 123.363 34.2578V37C121.23 37 119.555 36.1328 118.336 34.3984C117.68 33.4844 117.352 32.6172 117.352 31.7969ZM125.051 37V34.2227C126.457 34.2227 127.512 33.6133 128.215 32.3945C128.355 32.1367 128.461 31.8906 128.531 31.6562L131.027 32.5703C130.605 34.1875 129.645 35.4062 128.145 36.2266C127.184 36.7422 126.152 37 125.051 37Z" fill="white"/>
<path d="M0.24 63L3.528 58.584L0.48 54.48H2.4L4.884 57.912H5.604V54.48H7.248V57.912H7.968L10.452 54.48H12.372L9.324 58.584L12.612 63H10.716L7.992 59.412H7.248V63H5.604V59.412H4.848L2.136 63H0.24ZM15.2435 63V54.48H16.8875V60.672L21.0155 54.48H22.5515V63H20.9075V56.88L16.8275 63H15.2435ZM31.2467 63V55.932H28.7507L28.7027 57.372C28.6627 58.5 28.5707 59.432 28.4267 60.168C28.2827 60.904 28.0747 61.484 27.8027 61.908C27.5307 62.324 27.1867 62.62 26.7707 62.796C26.3627 62.964 25.8707 63.048 25.2947 63.048V61.62C25.5907 61.62 25.8467 61.556 26.0627 61.428C26.2787 61.3 26.4587 61.068 26.6027 60.732C26.7547 60.396 26.8747 59.92 26.9627 59.304C27.0507 58.688 27.1107 57.892 27.1427 56.916L27.2267 54.48H32.8907V63H31.2467ZM39.7581 63.06C39.1341 63.06 38.5661 62.94 38.0541 62.7C37.5501 62.46 37.1141 62.136 36.7461 61.728C36.3861 61.312 36.1061 60.848 35.9061 60.336C35.7061 59.816 35.6061 59.284 35.6061 58.74C35.6061 58.172 35.7101 57.632 35.9181 57.12C36.1341 56.6 36.4261 56.14 36.7941 55.74C37.1701 55.332 37.6101 55.012 38.1141 54.78C38.6261 54.54 39.1861 54.42 39.7941 54.42C40.4101 54.42 40.9701 54.544 41.4741 54.792C41.9861 55.04 42.4221 55.372 42.7821 55.788C43.1421 56.204 43.4221 56.668 43.6221 57.18C43.8221 57.692 43.9221 58.22 43.9221 58.764C43.9221 59.324 43.8181 59.864 43.6101 60.384C43.4021 60.896 43.1101 61.356 42.7341 61.764C42.3661 62.164 41.9261 62.48 41.4141 62.712C40.9101 62.944 40.3581 63.06 39.7581 63.06ZM37.2861 58.74C37.2861 59.108 37.3421 59.464 37.4541 59.808C37.5661 60.152 37.7261 60.46 37.9341 60.732C38.1501 60.996 38.4101 61.208 38.7141 61.368C39.0261 61.52 39.3781 61.596 39.7701 61.596C40.1701 61.596 40.5261 61.516 40.8381 61.356C41.1501 61.188 41.4101 60.968 41.6181 60.696C41.8261 60.416 41.9821 60.108 42.0861 59.772C42.1981 59.428 42.2541 59.084 42.2541 58.74C42.2541 58.372 42.1941 58.02 42.0741 57.684C41.9621 57.34 41.7981 57.036 41.5821 56.772C41.3741 56.5 41.1141 56.288 40.8021 56.136C40.4981 55.976 40.1541 55.896 39.7701 55.896C39.3621 55.896 39.0021 55.98 38.6901 56.148C38.3861 56.308 38.1301 56.524 37.9221 56.796C37.7141 57.068 37.5541 57.372 37.4421 57.708C37.3381 58.044 37.2861 58.388 37.2861 58.74ZM46.6924 63V54.48H48.3364V60.672L52.4644 54.48H54.0004V63H52.3564V56.88L48.2764 63H46.6924ZM50.3524 53.952C49.8964 53.952 49.5004 53.88 49.1644 53.736C48.8364 53.584 48.5804 53.376 48.3964 53.112C48.2204 52.848 48.1324 52.552 48.1324 52.224H49.2604C49.2604 52.456 49.3444 52.664 49.5124 52.848C49.6884 53.024 49.9684 53.112 50.3524 53.112C50.7284 53.112 51.0044 53.028 51.1804 52.86C51.3564 52.692 51.4444 52.48 51.4444 52.224H52.5844C52.5844 52.552 52.4924 52.848 52.3084 53.112C52.1324 53.376 51.8764 53.584 51.5404 53.736C51.2124 53.88 50.8164 53.952 50.3524 53.952ZM61.6184 63V54.48H63.2624V57.912H64.1024L66.6344 54.48H68.4824L65.3864 58.608L68.7224 63H66.7184L64.0784 59.412H63.2624V63H61.6184ZM74.4399 63.06C73.8159 63.06 73.2479 62.94 72.7359 62.7C72.2319 62.46 71.7959 62.136 71.4279 61.728C71.0679 61.312 70.7879 60.848 70.5879 60.336C70.3879 59.816 70.2879 59.284 70.2879 58.74C70.2879 58.172 70.3919 57.632 70.5999 57.12C70.8159 56.6 71.1079 56.14 71.4759 55.74C71.8519 55.332 72.2919 55.012 72.7959 54.78C73.3079 54.54 73.8679 54.42 74.4759 54.42C75.0919 54.42 75.6519 54.544 76.1559 54.792C76.6679 55.04 77.1039 55.372 77.4639 55.788C77.8239 56.204 78.1039 56.668 78.3039 57.18C78.5039 57.692 78.6039 58.22 78.6039 58.764C78.6039 59.324 78.4999 59.864 78.2919 60.384C78.0839 60.896 77.7919 61.356 77.4159 61.764C77.0479 62.164 76.6079 62.48 76.0959 62.712C75.5919 62.944 75.0399 63.06 74.4399 63.06ZM71.9679 58.74C71.9679 59.108 72.0239 59.464 72.1359 59.808C72.2479 60.152 72.4079 60.46 72.6159 60.732C72.8319 60.996 73.0919 61.208 73.3959 61.368C73.7079 61.52 74.0599 61.596 74.4519 61.596C74.8519 61.596 75.2079 61.516 75.5199 61.356C75.8319 61.188 76.0919 60.968 76.2999 60.696C76.5079 60.416 76.6639 60.108 76.7679 59.772C76.8799 59.428 76.9359 59.084 76.9359 58.74C76.9359 58.372 76.8759 58.02 76.7559 57.684C76.6439 57.34 76.4799 57.036 76.2639 56.772C76.0559 56.5 75.7959 56.288 75.4839 56.136C75.1799 55.976 74.8359 55.896 74.4519 55.896C74.0439 55.896 73.6839 55.98 73.3719 56.148C73.0679 56.308 72.8119 56.524 72.6039 56.796C72.3959 57.068 72.2359 57.372 72.1239 57.708C72.0199 58.044 71.9679 58.388 71.9679 58.74ZM88.2623 63V57.408L86.0783 61.572H85.1543L82.9703 57.408V63H81.3143V54.48H83.0903L85.6103 59.328L88.1543 54.48H89.9183V63H88.2623ZM93.1611 63V54.48H100.061V63H98.4171V55.932H94.8051V63H93.1611ZM108.72 63V55.932H106.224L106.176 57.372C106.136 58.5 106.044 59.432 105.9 60.168C105.756 60.904 105.548 61.484 105.276 61.908C105.004 62.324 104.66 62.62 104.244 62.796C103.836 62.964 103.344 63.048 102.768 63.048V61.62C103.064 61.62 103.32 61.556 103.536 61.428C103.752 61.3 103.932 61.068 104.076 60.732C104.228 60.396 104.348 59.92 104.436 59.304C104.524 58.688 104.584 57.892 104.616 56.916L104.7 54.48H110.364V63H108.72ZM119.511 61.548V63H113.595V54.48H119.403V55.932H115.251V57.984H118.839V59.328H115.251V61.548H119.511ZM122.266 63V54.48H123.91V57.912H124.75L127.282 54.48H129.13L126.034 58.608L129.37 63H127.366L124.726 59.412H123.91V63H122.266ZM130.936 58.68C130.936 58.16 131.028 57.652 131.212 57.156C131.404 56.652 131.68 56.196 132.04 55.788C132.4 55.372 132.84 55.044 133.36 54.804C133.88 54.556 134.472 54.432 135.136 54.432C135.92 54.432 136.596 54.604 137.164 54.948C137.74 55.292 138.168 55.74 138.448 56.292L137.176 57.168C137.032 56.848 136.844 56.596 136.612 56.412C136.38 56.22 136.132 56.088 135.868 56.016C135.604 55.936 135.344 55.896 135.088 55.896C134.672 55.896 134.308 55.98 133.996 56.148C133.692 56.316 133.436 56.536 133.228 56.808C133.02 57.08 132.864 57.384 132.76 57.72C132.664 58.056 132.616 58.392 132.616 58.728C132.616 59.104 132.676 59.468 132.796 59.82C132.916 60.164 133.084 60.472 133.3 60.744C133.524 61.008 133.788 61.22 134.092 61.38C134.404 61.532 134.744 61.608 135.112 61.608C135.376 61.608 135.644 61.564 135.916 61.476C136.188 61.388 136.44 61.248 136.672 61.056C136.904 60.864 137.084 60.616 137.212 60.312L138.568 61.092C138.4 61.516 138.124 61.876 137.74 62.172C137.364 62.468 136.94 62.692 136.468 62.844C135.996 62.996 135.528 63.072 135.064 63.072C134.456 63.072 133.9 62.948 133.396 62.7C132.892 62.444 132.456 62.108 132.088 61.692C131.728 61.268 131.444 60.796 131.236 60.276C131.036 59.748 130.936 59.216 130.936 58.68Z" fill="white"/>
</svg>
